<mxfile host="app.diagrams.net" agent="Mozilla/5.0 (Macintosh; Intel Mac OS X 10_15_7) AppleWebKit/605.1.15 (KHTML, like Gecko) Version/18.5 Safari/605.1.15 Ddg/18.5" version="28.1.1">
  <diagram name="Page-1" id="e7e014a7-5840-1c2e-5031-d8a46d1fe8dd">
    <mxGraphModel dx="1884" dy="828" grid="1" gridSize="10" guides="1" tooltips="1" connect="1" arrows="1" fold="1" page="1" pageScale="1" pageWidth="1169" pageHeight="826" background="none" math="0" shadow="0">
      <root>
        <mxCell id="0" />
        <mxCell id="1" parent="0" />
        <mxCell id="TVOafgB8qqpP3KBz_V3G-1" value="Producer 2" style="sketch=0;outlineConnect=0;fontColor=#232F3E;gradientColor=none;strokeColor=#232F3E;fillColor=#ffffff;dashed=0;verticalLabelPosition=bottom;verticalAlign=top;align=center;html=1;fontSize=12;fontStyle=0;aspect=fixed;shape=mxgraph.aws4.resourceIcon;resIcon=mxgraph.aws4.mobile_client;" parent="1" vertex="1">
          <mxGeometry x="50" y="390" width="60" height="60" as="geometry" />
        </mxCell>
        <mxCell id="TVOafgB8qqpP3KBz_V3G-2" value="Producer 1" style="sketch=0;outlineConnect=0;fontColor=#232F3E;gradientColor=none;strokeColor=#232F3E;fillColor=#ffffff;dashed=0;verticalLabelPosition=bottom;verticalAlign=top;align=center;html=1;fontSize=12;fontStyle=0;aspect=fixed;shape=mxgraph.aws4.resourceIcon;resIcon=mxgraph.aws4.mobile_client;" parent="1" vertex="1">
          <mxGeometry x="50" y="250" width="60" height="60" as="geometry" />
        </mxCell>
        <mxCell id="TVOafgB8qqpP3KBz_V3G-4" value="&lt;h1 style=&quot;margin-top: 0px;&quot;&gt;Explanation&lt;/h1&gt;&lt;p&gt;1. &lt;font face=&quot;Helvetica&quot;&gt;&lt;span style=&quot;font-size: 9px;&quot;&gt;Key - Producer can optionally specify a key which will determine the partition it will be sent to. If key is provided, messages are sent in round-robin around the partitions.&lt;/span&gt;&lt;/font&gt;&lt;/p&gt;&lt;p&gt;&lt;font face=&quot;Helvetica&quot; style=&quot;font-size: 9px;&quot;&gt;2.&amp;nbsp;&lt;/font&gt;&lt;span style=&quot;caret-color: oklch(0.3039 0.04 213.679993); color: oklch(0.3039 0.04 213.679993); font-size: 9px; letter-spacing: 0.08px;&quot;&gt;Each partition in a topic can be assigned to only one consumer within a consumer group at a time. No two consumers in the same group will consume from the same partition simultaneously.&lt;/span&gt;&lt;/p&gt;&lt;p&gt;&lt;span style=&quot;font-size: 9px; caret-color: oklch(0.3039 0.04 213.679993); color: oklch(0.3039 0.04 213.679993); letter-spacing: 0.08px;&quot;&gt;3. This ensures messages from a partition are processed only once by the group, avoiding race conditions or duplication.&lt;/span&gt;&lt;/p&gt;&lt;p&gt;&lt;span style=&quot;font-size: 9px; caret-color: oklch(0.3039 0.04 213.679993); color: oklch(0.3039 0.04 213.679993); letter-spacing: 0.08px;&quot;&gt;4.&amp;nbsp;if there are more partitions than consumers, each consumer may be responsible for multiple partitions.&lt;/span&gt;&lt;/p&gt;&lt;p&gt;&lt;span style=&quot;font-size: 9px; caret-color: oklch(0.3039 0.04 213.679993); color: oklch(0.3039 0.04 213.679993); letter-spacing: 0.08px;&quot;&gt;&lt;span style=&quot;letter-spacing: 0.08px;&quot;&gt;4.&amp;nbsp;Each consumer group has its own offset tracking&lt;/span&gt;&lt;br&gt;&lt;/span&gt;&lt;/p&gt;" style="text;html=1;whiteSpace=wrap;overflow=hidden;rounded=0;" parent="1" vertex="1">
          <mxGeometry x="30" y="620" width="360" height="280" as="geometry" />
        </mxCell>
        <mxCell id="lLBicBCrKUUR64lAWKpi-7" style="edgeStyle=orthogonalEdgeStyle;rounded=0;orthogonalLoop=1;jettySize=auto;html=1;entryX=0;entryY=0.5;entryDx=0;entryDy=0;" parent="1" source="lLBicBCrKUUR64lAWKpi-1" target="lLBicBCrKUUR64lAWKpi-25" edge="1">
          <mxGeometry relative="1" as="geometry" />
        </mxCell>
        <mxCell id="lLBicBCrKUUR64lAWKpi-21" value="Leader&lt;div&gt;Message&lt;/div&gt;" style="edgeLabel;html=1;align=center;verticalAlign=middle;resizable=0;points=[];" parent="lLBicBCrKUUR64lAWKpi-7" vertex="1" connectable="0">
          <mxGeometry x="0.1839" y="-1" relative="1" as="geometry">
            <mxPoint y="4" as="offset" />
          </mxGeometry>
        </mxCell>
        <mxCell id="lLBicBCrKUUR64lAWKpi-20" style="edgeStyle=orthogonalEdgeStyle;rounded=0;orthogonalLoop=1;jettySize=auto;html=1;entryX=0;entryY=0.5;entryDx=0;entryDy=0;" parent="1" source="lLBicBCrKUUR64lAWKpi-1" target="lLBicBCrKUUR64lAWKpi-14" edge="1">
          <mxGeometry relative="1" as="geometry" />
        </mxCell>
        <mxCell id="lLBicBCrKUUR64lAWKpi-23" value="Message&amp;nbsp;&lt;div&gt;Replication&lt;/div&gt;" style="edgeLabel;html=1;align=center;verticalAlign=middle;resizable=0;points=[];" parent="lLBicBCrKUUR64lAWKpi-20" vertex="1" connectable="0">
          <mxGeometry x="0.229" y="1" relative="1" as="geometry">
            <mxPoint as="offset" />
          </mxGeometry>
        </mxCell>
        <mxCell id="lLBicBCrKUUR64lAWKpi-1" value="" style="points=[];aspect=fixed;html=1;align=center;shadow=0;dashed=0;fillColor=#FF6A00;strokeColor=none;shape=mxgraph.alibaba_cloud.kafka;" parent="1" vertex="1">
          <mxGeometry x="300" y="330" width="56.699999999999996" height="42" as="geometry" />
        </mxCell>
        <mxCell id="lLBicBCrKUUR64lAWKpi-2" style="edgeStyle=orthogonalEdgeStyle;rounded=0;orthogonalLoop=1;jettySize=auto;html=1;entryX=0;entryY=0.69;entryDx=0;entryDy=0;entryPerimeter=0;" parent="1" source="TVOafgB8qqpP3KBz_V3G-2" target="lLBicBCrKUUR64lAWKpi-1" edge="1">
          <mxGeometry relative="1" as="geometry" />
        </mxCell>
        <mxCell id="lLBicBCrKUUR64lAWKpi-5" value="&lt;div&gt;topic: driver_location&lt;/div&gt;&amp;nbsp;message: {new location}&lt;div&gt;key (unique identifier)&lt;/div&gt;" style="edgeLabel;html=1;align=center;verticalAlign=middle;resizable=0;points=[];" parent="lLBicBCrKUUR64lAWKpi-2" vertex="1" connectable="0">
          <mxGeometry x="-0.6283" relative="1" as="geometry">
            <mxPoint as="offset" />
          </mxGeometry>
        </mxCell>
        <mxCell id="lLBicBCrKUUR64lAWKpi-3" style="edgeStyle=orthogonalEdgeStyle;rounded=0;orthogonalLoop=1;jettySize=auto;html=1;entryX=0;entryY=0.643;entryDx=0;entryDy=0;entryPerimeter=0;" parent="1" source="TVOafgB8qqpP3KBz_V3G-1" target="lLBicBCrKUUR64lAWKpi-1" edge="1">
          <mxGeometry relative="1" as="geometry" />
        </mxCell>
        <mxCell id="lLBicBCrKUUR64lAWKpi-4" value="topic: driver_location&lt;div&gt;&amp;nbsp;message: {new location}&lt;br&gt;&lt;/div&gt;&lt;div&gt;key (unique identifier)&lt;/div&gt;" style="edgeLabel;html=1;align=center;verticalAlign=middle;resizable=0;points=[];" parent="lLBicBCrKUUR64lAWKpi-3" vertex="1" connectable="0">
          <mxGeometry x="-0.5731" y="-2" relative="1" as="geometry">
            <mxPoint as="offset" />
          </mxGeometry>
        </mxCell>
        <mxCell id="lLBicBCrKUUR64lAWKpi-6" value="Kafka Broker -1 (Leader)" style="rounded=0;whiteSpace=wrap;html=1;labelPosition=center;verticalLabelPosition=bottom;align=center;verticalAlign=top;" parent="1" vertex="1">
          <mxGeometry x="470" y="240" width="450" height="210" as="geometry" />
        </mxCell>
        <mxCell id="lLBicBCrKUUR64lAWKpi-8" value="Partition 1 (driver_update)" style="rounded=1;whiteSpace=wrap;html=1;verticalAlign=top;labelPosition=center;verticalLabelPosition=bottom;align=center;" parent="1" vertex="1">
          <mxGeometry x="640" y="270" width="230" height="50" as="geometry" />
        </mxCell>
        <mxCell id="lLBicBCrKUUR64lAWKpi-9" value="Partition 2 (driver_update)" style="rounded=1;whiteSpace=wrap;html=1;verticalAlign=top;labelPosition=center;verticalLabelPosition=bottom;align=center;" parent="1" vertex="1">
          <mxGeometry x="640" y="365" width="220" height="55" as="geometry" />
        </mxCell>
        <mxCell id="lLBicBCrKUUR64lAWKpi-10" value="location update 2" style="rounded=0;whiteSpace=wrap;html=1;" parent="1" vertex="1">
          <mxGeometry x="650" y="280" width="100" height="30" as="geometry" />
        </mxCell>
        <mxCell id="lLBicBCrKUUR64lAWKpi-11" value="location update 1" style="rounded=0;whiteSpace=wrap;html=1;" parent="1" vertex="1">
          <mxGeometry x="760" y="280" width="100" height="30" as="geometry" />
        </mxCell>
        <mxCell id="lLBicBCrKUUR64lAWKpi-12" value="location update 3" style="rounded=0;whiteSpace=wrap;html=1;" parent="1" vertex="1">
          <mxGeometry x="650" y="377.5" width="100" height="30" as="geometry" />
        </mxCell>
        <mxCell id="lLBicBCrKUUR64lAWKpi-14" value="Kafka Broker -2 (Follower)" style="rounded=0;whiteSpace=wrap;html=1;labelPosition=center;verticalLabelPosition=bottom;align=center;verticalAlign=top;" parent="1" vertex="1">
          <mxGeometry x="470" y="500" width="260" height="210" as="geometry" />
        </mxCell>
        <mxCell id="lLBicBCrKUUR64lAWKpi-15" value="replication Partition 1 (driver_update)" style="rounded=1;whiteSpace=wrap;html=1;verticalAlign=top;labelPosition=center;verticalLabelPosition=bottom;align=center;" parent="1" vertex="1">
          <mxGeometry x="490" y="520" width="230" height="50" as="geometry" />
        </mxCell>
        <mxCell id="lLBicBCrKUUR64lAWKpi-16" value="Partition 2 (driver_update)" style="rounded=1;whiteSpace=wrap;html=1;verticalAlign=top;labelPosition=center;verticalLabelPosition=bottom;align=center;" parent="1" vertex="1">
          <mxGeometry x="490" y="615" width="220" height="55" as="geometry" />
        </mxCell>
        <mxCell id="lLBicBCrKUUR64lAWKpi-17" value="location update 2" style="rounded=0;whiteSpace=wrap;html=1;" parent="1" vertex="1">
          <mxGeometry x="500" y="530" width="100" height="30" as="geometry" />
        </mxCell>
        <mxCell id="lLBicBCrKUUR64lAWKpi-18" value="location update 1" style="rounded=0;whiteSpace=wrap;html=1;" parent="1" vertex="1">
          <mxGeometry x="610" y="530" width="100" height="30" as="geometry" />
        </mxCell>
        <mxCell id="lLBicBCrKUUR64lAWKpi-19" value="location update 3" style="rounded=0;whiteSpace=wrap;html=1;" parent="1" vertex="1">
          <mxGeometry x="500" y="627.5" width="100" height="30" as="geometry" />
        </mxCell>
        <mxCell id="lLBicBCrKUUR64lAWKpi-27" style="edgeStyle=orthogonalEdgeStyle;rounded=0;orthogonalLoop=1;jettySize=auto;html=1;entryX=0;entryY=0.5;entryDx=0;entryDy=0;" parent="1" source="lLBicBCrKUUR64lAWKpi-25" target="lLBicBCrKUUR64lAWKpi-8" edge="1">
          <mxGeometry relative="1" as="geometry" />
        </mxCell>
        <mxCell id="lLBicBCrKUUR64lAWKpi-28" style="edgeStyle=orthogonalEdgeStyle;rounded=0;orthogonalLoop=1;jettySize=auto;html=1;exitX=1;exitY=0.5;exitDx=0;exitDy=0;entryX=0;entryY=0.5;entryDx=0;entryDy=0;" parent="1" source="lLBicBCrKUUR64lAWKpi-25" target="lLBicBCrKUUR64lAWKpi-9" edge="1">
          <mxGeometry relative="1" as="geometry" />
        </mxCell>
        <mxCell id="lLBicBCrKUUR64lAWKpi-25" value="based on &lt;b&gt;key&lt;/b&gt; hash message partition is decided" style="rounded=0;whiteSpace=wrap;html=1;" parent="1" vertex="1">
          <mxGeometry x="480" y="255" width="105" height="55" as="geometry" />
        </mxCell>
        <mxCell id="lLBicBCrKUUR64lAWKpi-29" value="consumer group: Rider&lt;div&gt;(&lt;i&gt;each consumer group has is own offset tracking&lt;/i&gt;)&lt;br&gt;&lt;/div&gt;" style="rounded=0;whiteSpace=wrap;html=1;labelPosition=center;verticalLabelPosition=bottom;align=center;verticalAlign=top;" parent="1" vertex="1">
          <mxGeometry x="1240" y="20" width="170" height="190" as="geometry" />
        </mxCell>
        <mxCell id="lLBicBCrKUUR64lAWKpi-30" value="consumer group: Ride monitoring&lt;div&gt;(&lt;i&gt;each consumer group has is own offset tracking&lt;/i&gt;)&lt;/div&gt;" style="rounded=0;whiteSpace=wrap;html=1;labelPosition=center;verticalLabelPosition=bottom;align=center;verticalAlign=top;" parent="1" vertex="1">
          <mxGeometry x="1240" y="320" width="170" height="207" as="geometry" />
        </mxCell>
        <mxCell id="lLBicBCrKUUR64lAWKpi-37" style="edgeStyle=orthogonalEdgeStyle;rounded=0;orthogonalLoop=1;jettySize=auto;html=1;entryX=1;entryY=0.25;entryDx=0;entryDy=0;" parent="1" source="lLBicBCrKUUR64lAWKpi-31" target="lLBicBCrKUUR64lAWKpi-8" edge="1">
          <mxGeometry relative="1" as="geometry">
            <Array as="points">
              <mxPoint x="1000" y="55" />
              <mxPoint x="1000" y="283" />
            </Array>
          </mxGeometry>
        </mxCell>
        <mxCell id="lLBicBCrKUUR64lAWKpi-31" value="Rider update service 1" style="rounded=1;whiteSpace=wrap;html=1;" parent="1" vertex="1">
          <mxGeometry x="1262.5" y="35" width="125" height="40" as="geometry" />
        </mxCell>
        <mxCell id="lLBicBCrKUUR64lAWKpi-38" style="edgeStyle=orthogonalEdgeStyle;rounded=0;orthogonalLoop=1;jettySize=auto;html=1;entryX=1;entryY=0.25;entryDx=0;entryDy=0;exitX=0;exitY=0.5;exitDx=0;exitDy=0;" parent="1" source="lLBicBCrKUUR64lAWKpi-32" target="lLBicBCrKUUR64lAWKpi-9" edge="1">
          <mxGeometry relative="1" as="geometry">
            <Array as="points">
              <mxPoint x="980" y="115" />
              <mxPoint x="980" y="379" />
            </Array>
          </mxGeometry>
        </mxCell>
        <mxCell id="lLBicBCrKUUR64lAWKpi-32" value="Rider update service 2" style="rounded=1;whiteSpace=wrap;html=1;" parent="1" vertex="1">
          <mxGeometry x="1262.5" y="95" width="125" height="40" as="geometry" />
        </mxCell>
        <mxCell id="lLBicBCrKUUR64lAWKpi-39" style="edgeStyle=orthogonalEdgeStyle;rounded=0;orthogonalLoop=1;jettySize=auto;html=1;entryX=1;entryY=0.5;entryDx=0;entryDy=0;" parent="1" source="lLBicBCrKUUR64lAWKpi-33" target="lLBicBCrKUUR64lAWKpi-8" edge="1">
          <mxGeometry relative="1" as="geometry" />
        </mxCell>
        <mxCell id="lLBicBCrKUUR64lAWKpi-33" value="Ride monitoring service 1" style="rounded=1;whiteSpace=wrap;html=1;" parent="1" vertex="1">
          <mxGeometry x="1265" y="344.5" width="125" height="40" as="geometry" />
        </mxCell>
        <mxCell id="lLBicBCrKUUR64lAWKpi-40" style="edgeStyle=orthogonalEdgeStyle;rounded=0;orthogonalLoop=1;jettySize=auto;html=1;entryX=1;entryY=0.5;entryDx=0;entryDy=0;" parent="1" source="lLBicBCrKUUR64lAWKpi-34" target="lLBicBCrKUUR64lAWKpi-9" edge="1">
          <mxGeometry relative="1" as="geometry" />
        </mxCell>
        <mxCell id="lLBicBCrKUUR64lAWKpi-34" value="Ride monitoring service 2" style="rounded=1;whiteSpace=wrap;html=1;" parent="1" vertex="1">
          <mxGeometry x="1265" y="404.5" width="125" height="40" as="geometry" />
        </mxCell>
        <mxCell id="lLBicBCrKUUR64lAWKpi-52" style="edgeStyle=orthogonalEdgeStyle;rounded=0;orthogonalLoop=1;jettySize=auto;html=1;entryX=0;entryY=0.5;entryDx=0;entryDy=0;" parent="1" source="lLBicBCrKUUR64lAWKpi-41" target="lLBicBCrKUUR64lAWKpi-51" edge="1">
          <mxGeometry relative="1" as="geometry" />
        </mxCell>
        <mxCell id="lLBicBCrKUUR64lAWKpi-41" value="Ride monitoring service 3" style="rounded=1;whiteSpace=wrap;html=1;" parent="1" vertex="1">
          <mxGeometry x="1265" y="457" width="125" height="40" as="geometry" />
        </mxCell>
        <mxCell id="lLBicBCrKUUR64lAWKpi-50" style="edgeStyle=orthogonalEdgeStyle;rounded=0;orthogonalLoop=1;jettySize=auto;html=1;" parent="1" source="lLBicBCrKUUR64lAWKpi-42" target="lLBicBCrKUUR64lAWKpi-49" edge="1">
          <mxGeometry relative="1" as="geometry" />
        </mxCell>
        <mxCell id="lLBicBCrKUUR64lAWKpi-42" value="Rider update service 3" style="rounded=1;whiteSpace=wrap;html=1;" parent="1" vertex="1">
          <mxGeometry x="1262.5" y="150" width="125" height="40" as="geometry" />
        </mxCell>
        <mxCell id="lLBicBCrKUUR64lAWKpi-49" value="This instance will remain unassigned since a service can read from only one partition. If any service crashes then this instance will be assigned to the partition." style="text;html=1;align=center;verticalAlign=middle;whiteSpace=wrap;rounded=0;fontSize=8;" parent="1" vertex="1">
          <mxGeometry x="1447.5" y="147.5" width="110" height="45" as="geometry" />
        </mxCell>
        <mxCell id="lLBicBCrKUUR64lAWKpi-51" value="This instance will remain unassigned since a service can read from only one partition. If any service crashes then this instance will be assigned to the partition." style="text;html=1;align=center;verticalAlign=middle;whiteSpace=wrap;rounded=0;fontSize=8;" parent="1" vertex="1">
          <mxGeometry x="1447.5" y="454.5" width="110" height="45" as="geometry" />
        </mxCell>
        <mxCell id="gKnV0kYVZpo58JZsmNtU-2" value="&lt;div&gt;topic: driver_location&amp;nbsp;&lt;br&gt;&lt;/div&gt;&lt;div&gt;-----------------------------------&lt;/div&gt;&lt;div&gt;sample message&lt;div&gt;{&amp;nbsp;&lt;div&gt;&quot;driver_id&quot;: &quot;D12345”,&amp;nbsp;&lt;div&gt;&quot;latitude&quot;: 37.7749,&amp;nbsp;&lt;/div&gt;&lt;div&gt;&quot;longitude&quot;: -122.4194,&amp;nbsp;&lt;/div&gt;&lt;div&gt;&quot;timestamp&quot;: &quot;2025-08-24T12:00:00Z”,&amp;nbsp;&lt;/div&gt;&lt;div&gt;&quot;status&quot;: &quot;available”&amp;nbsp;&lt;/div&gt;&lt;div&gt;}&amp;nbsp;&lt;/div&gt;&lt;/div&gt;&lt;/div&gt;&lt;/div&gt;" style="text;html=1;align=left;verticalAlign=middle;resizable=0;points=[];autosize=1;strokeColor=#666666;fillColor=#f5f5f5;fontColor=#333333;" vertex="1" parent="1">
          <mxGeometry x="60" y="60" width="230" height="150" as="geometry" />
        </mxCell>
        <mxCell id="gKnV0kYVZpo58JZsmNtU-3" value="consumer group: Alert and monitoring&lt;div&gt;(&lt;i&gt;each consumer group has is own offset tracking&lt;/i&gt;)&lt;/div&gt;" style="rounded=0;whiteSpace=wrap;html=1;labelPosition=center;verticalLabelPosition=bottom;align=center;verticalAlign=top;" vertex="1" parent="1">
          <mxGeometry x="1240" y="700" width="170" height="90" as="geometry" />
        </mxCell>
        <mxCell id="gKnV0kYVZpo58JZsmNtU-9" style="edgeStyle=orthogonalEdgeStyle;rounded=0;orthogonalLoop=1;jettySize=auto;html=1;entryX=1;entryY=0.75;entryDx=0;entryDy=0;exitX=0;exitY=0.25;exitDx=0;exitDy=0;" edge="1" parent="1" source="gKnV0kYVZpo58JZsmNtU-4" target="lLBicBCrKUUR64lAWKpi-8">
          <mxGeometry relative="1" as="geometry">
            <Array as="points">
              <mxPoint x="1050" y="735" />
              <mxPoint x="1050" y="308" />
            </Array>
          </mxGeometry>
        </mxCell>
        <mxCell id="gKnV0kYVZpo58JZsmNtU-10" style="edgeStyle=orthogonalEdgeStyle;rounded=0;orthogonalLoop=1;jettySize=auto;html=1;entryX=1;entryY=0.75;entryDx=0;entryDy=0;" edge="1" parent="1" source="gKnV0kYVZpo58JZsmNtU-4" target="lLBicBCrKUUR64lAWKpi-9">
          <mxGeometry relative="1" as="geometry">
            <Array as="points">
              <mxPoint x="990" y="745" />
              <mxPoint x="990" y="406" />
            </Array>
          </mxGeometry>
        </mxCell>
        <mxCell id="gKnV0kYVZpo58JZsmNtU-12" style="edgeStyle=orthogonalEdgeStyle;rounded=0;orthogonalLoop=1;jettySize=auto;html=1;entryX=0;entryY=0.5;entryDx=0;entryDy=0;" edge="1" parent="1" source="gKnV0kYVZpo58JZsmNtU-4" target="gKnV0kYVZpo58JZsmNtU-11">
          <mxGeometry relative="1" as="geometry" />
        </mxCell>
        <mxCell id="gKnV0kYVZpo58JZsmNtU-4" value="AM service 1" style="rounded=1;whiteSpace=wrap;html=1;" vertex="1" parent="1">
          <mxGeometry x="1265" y="724.5" width="125" height="40" as="geometry" />
        </mxCell>
        <mxCell id="gKnV0kYVZpo58JZsmNtU-11" value="One consumer can be assigned to multiple topic" style="text;html=1;align=center;verticalAlign=middle;whiteSpace=wrap;rounded=0;fontSize=8;" vertex="1" parent="1">
          <mxGeometry x="1447.5" y="722.5" width="110" height="45" as="geometry" />
        </mxCell>
      </root>
    </mxGraphModel>
  </diagram>
</mxfile>
